# xmcd
# 
# Track frame offsets:
#     150
#     12977
#     27554
#     44016
#     57802
#     68726
#     82513
#     91864
#     111048
#     124537
#     143563
#     159192
#     173707
#     187346
# 
# Disc length: 2736
# 
# Revision: 1
# Processed by: cddbd v1.5.2PL0 Copyright (c) Steve Scherf et al.
# Submitted via: BonkEnc v1.0rc1
# 
DISCID=ab0aae0e
DTITLE=Valentín Elizalde - Vencedor
DYEAR=2006
DGENRE=General Latin
TTITLE0=Te Quiero Asi
TTITLE1=Vidita Mia
TTITLE2=Como Me DUele
TTITLE3=A Mis Enemigos
TTITLE4=El Toro Moro
TTITLE5=Vencedor
TTITLE6=Y No Me Lo Das
TTITLE7=Rodolfillo
TTITLE8=Hoy No
TTITLE9=El Corrido Del Medico
TTITLE10=Porque Te Extraño
TTITLE11=Para Que Olvidar
TTITLE12=El M Grande
TTITLE13=En Esta Navidad
EXTD=
EXTT0=
EXTT1=
EXTT2=
EXTT3=
EXTT4=
EXTT5=
EXTT6=
EXTT7=
EXTT8=
EXTT9=
EXTT10=
EXTT11=
EXTT12=
EXTT13=
PLAYORDER=
